<?xml version="1.0" encoding="UTF-8" standalone="no"?>
<!-- Created with Inkscape (http://www.inkscape.org/) -->

<svg
   version="1.1"
   id="svg302"
   width="437.54971"
   height="122.33899"
   viewBox="0 0 437.54971 122.33899"
   sodipodi:docname="Pic3.svg"
   inkscape:version="1.2.2 (732a01da63, 2022-12-09)"
   xmlns:inkscape="http://www.inkscape.org/namespaces/inkscape"
   xmlns:sodipodi="http://sodipodi.sourceforge.net/DTD/sodipodi-0.dtd"
   xmlns="http://www.w3.org/2000/svg"
   xmlns:svg="http://www.w3.org/2000/svg">
  <defs
     id="defs306">
    <clipPath
       clipPathUnits="userSpaceOnUse"
       id="clipPath320">
      <path
         d="M 0,0 H 328 V 91 H 0 Z"
         id="path318" />
    </clipPath>
    <clipPath
       clipPathUnits="userSpaceOnUse"
       id="clipPath332">
      <path
         d="M 0,26 H 328 V 91 H 0 Z"
         id="path330" />
    </clipPath>
  </defs>
  <sodipodi:namedview
     id="namedview304"
     pagecolor="#ffffff"
     bordercolor="#000000"
     borderopacity="0.25"
     inkscape:showpageshadow="2"
     inkscape:pageopacity="0.0"
     inkscape:pagecheckerboard="0"
     inkscape:deskcolor="#d1d1d1"
     showgrid="false"
     inkscape:zoom="2.8499619"
     inkscape:cx="218.59942"
     inkscape:cy="61.053449"
     inkscape:window-width="1920"
     inkscape:window-height="1017"
     inkscape:window-x="-8"
     inkscape:window-y="-8"
     inkscape:window-maximized="1"
     inkscape:current-layer="g310">
    <inkscape:page
       x="0"
       y="0"
       id="page308"
       width="437.54971"
       height="122.33899" />
  </sodipodi:namedview>
  <g
     id="g310"
     inkscape:groupmode="layer"
     inkscape:label="Page 1"
     transform="scale(1.3333333)">
    <g
       id="g312" />
    <g
       id="g314">
      <g
         id="g316"
         clip-path="url(#clipPath320)">
        <path
           d="M 0,0 H 328.164 V 141.164 H 0 Z"
           style="fill:#e2e2e2;fill-opacity:1;fill-rule:nonzero;stroke:none"
           id="path322" />
        <path
           d="m 18.852,27.938 c 0,-0.309 0.5,-2.758 1.109,-5.438 C 20.57,19.82 22.16,13.66 23.496,8.813 24.832,3.965 26.191,0 26.512,0 c 0.324,0 0.59,6.414 0.59,14.25 V 28.5 h -4.125 c -2.27,0 -4.125,-0.254 -4.125,-0.562 z"
           style="fill:#003e87;fill-opacity:1;fill-rule:nonzero;stroke:none"
           id="path324" />
      </g>
    </g>
    <g
       id="g326">
      <g
         id="g328"
         clip-path="url(#clipPath332)">
        <path
           d="M 315.563,26.816 H 12.598 C 5.621,26.816 0,32.438 0,39.418 v 62.332 c 0,6.98 5.621,12.598 12.598,12.598 h 302.965 c 6.98,0 12.601,-5.618 12.601,-12.598 V 39.418 c 0,-6.98 -5.621,-12.602 -12.601,-12.602 z"
           style="fill:#a5ceff;fill-opacity:1;fill-rule:nonzero;stroke:none"
           id="path334" />
      </g>
    </g>
    <g
       id="g336">
      <path
         d="M 291.02,0 H 37.145 C 31.223,0 26.457,4.766 26.457,10.688 v 52.875 c 0,5.921 4.766,10.687 10.688,10.687 H 291.02 c 5.921,0 10.687,-4.766 10.687,-10.687 V 10.688 C 301.707,4.766 296.941,0 291.02,0 Z"
         style="fill:#0064db;fill-opacity:1;fill-rule:nonzero;stroke:none"
         id="path338" />
      <path
         d="M 26.512,0 H 46.16 V 11.789 H 26.512 Z"
         style="fill:#0064db;fill-opacity:1;fill-rule:nonzero;stroke:none"
         id="path340" />
      <text
         xml:space="preserve"
         transform="translate(87.319388,45.134084)"
         style="font-variant:normal;font-weight:normal;font-size:26.2232px;font-family:Verdana;-inkscape-font-specification:Verdana;writing-mode:lr-tb;fill:#ffffff;fill-opacity:1;fill-rule:nonzero;stroke:none"
         id="text344"><tspan
           x="0 19.705812 35.455097"
           y="0"
           sodipodi:role="line"
           id="tspan342">Над</tspan></text>
      <text
         xml:space="preserve"
         transform="translate(148.29345,45.134084)"
         style="font-variant:normal;font-weight:normal;font-size:26.2232px;font-family:Verdana;-inkscape-font-specification:Verdana;writing-mode:lr-tb;fill:#ffffff;fill-opacity:1;fill-rule:nonzero;stroke:none"
         id="text348"><tspan
           x="0 16.671194 33.342388"
           y="0"
           sodipodi:role="line"
           id="tspan346">10 </tspan></text>
      <text
         xml:space="preserve"
         transform="translate(190.85493,45.134084)"
         style="font-variant:normal;font-weight:normal;font-size:26.2232px;font-family:Verdana;-inkscape-font-specification:Verdana;writing-mode:lr-tb;fill:#ffffff;fill-opacity:1;fill-rule:nonzero;stroke:none"
         id="text352"><tspan
           x="0 16.29987 33.009476"
           y="0"
           sodipodi:role="line"
           id="tspan350">дни</tspan></text>
    </g>
  </g>
</svg>
